<svg width="42" height="42" viewBox="0 0 42 42" fill="none" xmlns="http://www.w3.org/2000/svg">
<circle cx="21" cy="21" r="21" fill="white"/>
<path d="M42 21C42 32.598 32.598 42 21 42C9.40202 42 0 32.598 0 21C0 9.40202 9.40202 0 21 0C32.598 0 42 9.40202 42 21ZM2.16848 21C2.16848 31.4004 10.5996 39.8315 21 39.8315C31.4004 39.8315 39.8315 31.4004 39.8315 21C39.8315 10.5996 31.4004 2.16848 21 2.16848C10.5996 2.16848 2.16848 10.5996 2.16848 21Z" fill="#161616"/>
<path d="M30.2941 13.5874L27.8692 15.8792C29.1202 17.6508 29.6638 19.8261 29.3933 21.978C29.1228 24.1298 28.0577 26.1029 26.4071 27.5098C26.0252 24.4803 25.6564 21.4376 25.2612 18.3291L21.9025 21.5035C21.6654 20.6869 21.4414 19.8834 21.2044 19.0931L26.3413 14.2328L26.473 14.101L28.7517 11.9541C26.4514 9.93667 23.4626 8.88252 20.4056 9.01041C17.3487 9.13831 14.4584 10.4384 12.3346 12.6409C10.2109 14.8434 9.01676 17.7791 9.00018 20.8387C8.98359 23.8983 10.1458 26.8467 12.2455 29.0721C14.3453 31.2975 17.2213 32.6289 20.2767 32.7899C23.3321 32.9509 26.3322 31.9292 28.6542 29.9369C30.9763 27.9445 32.4419 25.1346 32.747 22.0902C33.0522 19.0458 32.1733 16.0009 30.2928 13.5874H30.2941ZM12.0909 20.8844C12.0902 19.7421 12.3151 18.6108 12.7527 17.5556C13.1903 16.5004 13.832 15.5419 14.6409 14.7353C15.4499 13.9287 16.4101 13.2898 17.4666 12.8552C18.5231 12.4207 19.655 12.199 20.7974 12.203C21.5906 12.2006 22.38 12.3115 23.1419 12.5323L12.3412 22.9511C12.173 22.2751 12.089 21.581 12.0909 20.8844ZM20.771 29.5777C19.4216 29.577 18.0907 29.2624 16.8838 28.6589C15.6768 28.0555 14.6266 27.1795 13.8164 26.1004L18.3343 21.8183L19.7305 24.5712C20.1256 25.3351 20.5076 26.0991 20.9422 26.9157L23.5239 24.479L25.4733 28.1934C24.0697 29.0933 22.4383 29.5735 20.771 29.5777Z" fill="black"/>
</svg>
