<svg width="153" height="153" viewBox="0 0 153 153" fill="none" xmlns="http://www.w3.org/2000/svg">
<g id="Layer 3">
<g id="Layer 1">
<g id="Layer 2">
<g id="Layer 1-2">
<path id="Vector" d="M125.22 28.0011L112.854 42.7774C121.221 52.0973 125.802 64.2082 125.698 76.7324C125.594 89.2566 120.812 101.29 112.291 110.469C108.062 93.3502 103.9 76.1468 99.5431 58.5834L82.4137 79.0495C80.5046 74.5251 78.6799 70.0673 76.7884 65.6939L102.983 34.3617L103.65 33.5176L115.275 19.6707C100.725 9.64694 82.8728 5.61107 65.4254 8.4008C47.9779 11.1905 32.2747 20.5916 21.5751 34.6527C10.8754 48.7138 6.00119 66.3551 7.96402 83.9148C9.92684 101.475 18.576 117.604 32.1162 128.956C45.6565 140.307 63.0479 146.009 80.6807 144.878C98.3135 143.746 114.834 135.868 126.812 122.879C138.79 109.89 145.307 92.7869 145.009 75.1203C144.711 57.4537 137.622 40.5802 125.213 28.002L125.22 28.0011ZM25.7221 82.0983C24.9497 75.5466 25.4788 68.9069 27.2789 62.5602C29.079 56.2134 32.1148 50.2847 36.212 45.1142C40.3092 39.9437 45.3871 35.6332 51.1544 32.4301C56.9217 29.227 63.2648 27.1944 69.8196 26.4489C74.3675 25.9015 78.9702 26.0065 83.4885 26.7605L28.5476 93.7834C27.1284 90.0195 26.1794 86.0948 25.7221 82.0983ZM81.3551 126.121C73.6147 127.025 65.7701 126.116 58.4413 123.466C51.1125 120.817 44.5003 116.499 39.1272 110.854L62.1597 83.2552L72.0194 98.1055C74.7996 102.221 77.5044 106.346 80.5467 110.738L93.715 95.0251L107.394 115.018C99.9493 121.124 90.9152 124.976 81.3551 126.121Z" fill="black"/>
</g>
</g>
</g>
</g>
</svg>
