<svg width="310" height="262" viewBox="0 0 310 262" fill="none" xmlns="http://www.w3.org/2000/svg">
<path d="M293.921 207.557C292.175 205.891 289.412 208.653 289.453 208.742C289.257 209.127 289.067 209.524 288.888 209.927C289.273 209.518 290.541 209.287 292.206 209.714C293.87 210.14 295.631 209.074 293.921 207.557Z" fill="#263238"/>
<path d="M288.693 203.017C286.926 201.452 286.068 204.848 287.219 206.431C288.369 208.013 288.883 209.323 288.862 209.921C289.016 209.506 289.181 209.092 289.376 208.689C289.268 208.677 290.311 204.57 288.693 203.017Z" fill="#263238"/>
<path d="M291.667 199.176C290.157 197.298 288.831 200.451 289.735 202.229C290.639 204.006 290.968 205.381 290.86 205.962C291.071 205.589 291.292 205.221 291.518 204.86C291.43 204.836 293.038 201.025 291.667 199.176Z" fill="#263238"/>
<path d="M287.85 213.098C287.808 213.12 287.759 213.123 287.715 213.106C287.67 213.09 287.633 213.055 287.609 213.009C285.671 208.95 284.665 204.387 284.688 199.753C284.71 195.119 285.76 190.569 287.737 186.535C287.762 186.487 287.802 186.451 287.849 186.437C287.897 186.422 287.947 186.43 287.989 186.458C288.011 186.471 288.03 186.489 288.046 186.511C288.061 186.533 288.073 186.558 288.079 186.585C288.086 186.613 288.088 186.641 288.085 186.669C288.082 186.697 288.073 186.724 288.061 186.749C286.11 190.72 285.074 195.202 285.052 199.767C285.029 204.333 286.021 208.828 287.933 212.825C287.945 212.849 287.953 212.876 287.956 212.904C287.959 212.932 287.958 212.961 287.951 212.988C287.944 213.015 287.933 213.041 287.917 213.062C287.902 213.084 287.882 213.102 287.861 213.115L287.85 213.098Z" fill="#263238"/>
<path d="M288.441 203.965C286.196 204.303 286.068 208.523 286.16 208.552C286.273 208.985 286.397 209.412 286.53 209.838C286.53 209.246 287.249 208.007 288.651 206.875C290.053 205.743 290.572 203.544 288.441 203.965Z" fill="#263238"/>
<path d="M281.98 205.292C279.787 205.719 281.359 208.759 283.146 208.848C284.933 208.937 286.115 209.411 286.479 209.838C286.32 209.423 286.171 209.002 286.032 208.582C285.986 208.659 284.091 204.978 281.98 205.292Z" fill="#263238"/>
<path d="M288.144 200.101C285.879 200.007 285.134 204.096 285.216 204.143C285.267 204.582 285.324 205.02 285.391 205.459C285.483 204.866 286.372 203.817 287.923 202.999C289.474 202.182 290.29 200.107 288.144 200.101Z" fill="#263238"/>
<path d="M281.59 200.166C279.366 200.166 280.465 203.432 282.211 203.87C283.957 204.309 285.051 204.985 285.349 205.465C285.252 205.032 285.169 204.599 285.098 204.161C285.021 204.214 283.695 200.261 281.59 200.166Z" fill="#263238"/>
<path d="M288.385 196.255C286.166 195.727 284.841 199.597 284.918 199.657C284.918 200.095 284.892 200.534 284.892 200.972C285.072 200.421 286.099 199.556 287.748 199.052C289.396 198.548 290.511 196.676 288.385 196.255Z" fill="#263238"/>
<path d="M281.923 195.052C279.735 194.625 280.346 198.051 282 198.815C283.654 199.58 284.64 200.445 284.861 200.978C284.83 200.534 284.814 200.095 284.804 199.651C284.722 199.698 283.988 195.562 281.923 195.052Z" fill="#263238"/>
<path d="M289.171 192.497C287.06 191.555 285.19 195.123 285.257 195.194C285.18 195.62 285.108 196.053 285.046 196.486C285.298 195.976 286.438 195.3 288.128 195.146C289.818 194.992 291.225 193.327 289.171 192.497Z" fill="#263238"/>
<path d="M283.007 190.067C280.912 189.22 281.014 192.728 282.54 193.801C284.065 194.874 284.902 195.917 285.046 196.48C285.082 196.041 285.123 195.603 285.18 195.17C285.062 195.188 284.959 190.968 283.007 190.067Z" fill="#263238"/>
<path d="M290.547 188.929C288.6 187.59 286.227 190.773 286.284 190.85C286.145 191.259 286.011 191.673 285.888 192.094C286.212 191.638 287.429 191.211 289.129 191.359C290.829 191.507 292.432 190.144 290.547 188.929Z" fill="#263238"/>
<path d="M284.8 185.326C282.853 184.081 282.432 187.59 283.773 188.941C285.113 190.292 285.796 191.496 285.827 192.082C285.93 191.656 286.038 191.229 286.156 190.808C286.089 190.82 286.603 186.6 284.8 185.326Z" fill="#263238"/>
<path d="M287.075 188.443C287.019 188.443 287.533 184.692 288.539 182.95C289.546 181.207 290.84 181.61 291.174 182.422C291.508 183.234 290.82 184.413 290.065 185.243C289.31 186.073 287.05 188.39 287.075 188.443Z" fill="#263238"/>
<path d="M287.116 188.574C287.091 188.582 287.064 188.582 287.039 188.572C287.015 188.563 286.993 188.545 286.977 188.52C286.968 188.504 286.963 188.484 286.963 188.464C286.963 188.444 286.968 188.425 286.977 188.408C286.977 187.703 287.594 184.372 288.456 182.873C288.626 182.496 288.879 182.178 289.191 181.953C289.502 181.728 289.861 181.603 290.228 181.592C290.451 181.599 290.667 181.674 290.856 181.809C291.045 181.945 291.199 182.136 291.302 182.363C291.774 183.459 290.557 184.929 290.172 185.326C289.391 186.055 287.373 188.236 287.208 188.479C287.202 188.503 287.19 188.525 287.174 188.541C287.157 188.558 287.137 188.569 287.116 188.574ZM289.545 182.019C289.159 182.241 288.841 182.592 288.631 183.027C287.84 184.396 287.362 187.021 287.229 188.029C287.409 187.815 287.707 187.495 288.164 187.003C288.76 186.363 289.545 185.539 289.977 185.136C290.696 184.336 291.363 183.216 291.05 182.481C290.962 182.305 290.836 182.157 290.684 182.054C290.532 181.95 290.359 181.893 290.182 181.889C289.967 181.872 289.752 181.917 289.556 182.019H289.545Z" fill="#263238"/>
<path d="M18.6354 206.751C20.4279 207.101 19.149 209.584 17.6853 209.673C16.2215 209.761 15.2559 210.129 14.958 210.479C15.0864 210.141 15.2097 209.797 15.3227 209.453C15.3792 209.507 16.9303 206.496 18.6354 206.751Z" fill="#263238"/>
<path d="M18.9737 202.56C20.7868 202.56 19.888 205.233 18.4601 205.589C17.0323 205.944 16.1335 206.495 15.8921 206.892C15.964 206.537 16.0359 206.181 16.0924 205.826C16.1643 205.855 17.248 202.643 18.9737 202.56Z" fill="#263238"/>
<path d="M18.6817 198.382C20.4742 198.033 19.9709 200.83 18.6201 201.458C17.2693 202.086 16.463 202.792 16.2832 203.236C16.3037 202.873 16.3192 202.511 16.3294 202.152C16.4116 202.175 17.0125 198.797 18.6817 198.382Z" fill="#263238"/>
<path d="M17.8191 194.305C19.5345 193.618 19.4523 196.48 18.2043 197.357C16.9562 198.234 16.2731 199.088 16.1498 199.55C16.1498 199.189 16.0882 198.833 16.042 198.477C16.1139 198.501 16.2218 195.046 17.8191 194.305Z" fill="#263238"/>
<path d="M16.3501 190.447C17.9423 189.433 18.2864 192.296 17.1822 193.41C16.0779 194.524 15.5335 195.502 15.4873 195.976C15.4051 195.627 15.3178 195.277 15.2202 194.933C15.2921 194.921 14.8812 191.472 16.3501 190.447Z" fill="#263238"/>
<path d="M309.693 213.572L1 213.572" stroke="#263238" stroke-width="0.5" stroke-linecap="round" stroke-linejoin="round"/>
<path d="M244.063 0H64.7581C53.4401 0 44.2651 10.5869 44.2651 23.6466V123.584C44.2651 136.644 53.4401 147.231 64.7581 147.231H244.063C255.381 147.231 264.556 136.644 264.556 123.584V23.6466C264.556 10.5869 255.381 0 244.063 0Z" fill="white"/>
<path d="M244.125 3.47276H64.4909C59.7147 3.47433 55.1345 5.66477 51.7577 9.56238C48.3809 13.46 46.4839 18.7456 46.4839 24.2569V60.4083V88.0967V122.849C46.4852 128.36 48.3829 133.644 51.7595 137.54C55.1362 141.436 59.7156 143.626 64.4909 143.628H244.125C246.491 143.628 248.834 143.09 251.02 142.045C253.206 141 255.192 139.469 256.865 137.538C258.538 135.608 259.865 133.316 260.771 130.794C261.676 128.271 262.142 125.568 262.142 122.838V24.2569C262.141 18.744 260.242 13.4575 256.863 9.55992C253.485 5.66232 248.903 3.47276 244.125 3.47276Z" fill="#D9D9D9"/>
<path d="M178.049 57.694H121.208V27.5757C121.208 27.315 121.143 27.06 121.021 26.8406C120.899 26.6212 120.725 26.4465 120.52 26.337L77.1922 3.47276H71.5425L118.871 28.4528V57.694H46.4785V60.4201H75.5641C73.2374 87.6107 84.3468 103.535 94.1978 112.14C100.474 117.55 107.565 121.569 115.112 123.993L104.326 143.628H107.12L126.483 108.442H161.018L155.456 143.628H157.854L171.008 60.4023H177.479L235.096 143.628H238.116L212.06 105.989L245.696 77.2987C245.845 77.1724 245.966 77.0072 246.049 76.8167C246.132 76.6261 246.175 76.4156 246.174 76.2023C246.175 76.0884 246.163 75.9748 246.138 75.8645L236.102 30.6456H262.142V27.9194H213.257C213.037 27.9147 212.819 27.981 212.63 28.1108C212.44 28.2406 212.286 28.4288 212.184 28.6543L207.731 38.8122L191.341 21.4774L197.34 3.47276H194.813L188.85 21.3647C188.764 21.6199 188.747 21.8991 188.802 22.1656C188.856 22.4321 188.978 22.6736 189.153 22.8582L206.647 41.3606L191.393 76.143L178.974 58.1977C178.861 58.0402 178.72 57.9133 178.56 57.8262C178.401 57.7391 178.226 57.6939 178.049 57.694ZM214.002 30.6634H233.683L243.673 75.6689L210.607 103.873L193.036 78.4899L214.002 30.6634ZM168.63 60.4201L161.439 105.758H127.952L152.903 60.4201H168.63ZM150.14 60.4201L116.488 121.581C108.972 119.265 101.905 115.326 95.6615 109.971C82.0201 98.0709 76.0777 81.3998 77.9472 60.4142L150.14 60.4201Z" fill="white"/>
<path d="M153.751 3.47276V7.55017L176.067 17.8504V38.4507L154.244 27.5757V43.5949H132.924V19.5631L105.841 3.47276H153.751Z" fill="#C4C4C4"/>
<path d="M67.3364 99.8134V114.529H77.963V99.8134H67.3364Z" fill="#C4C4C4"/>
<path d="M114.337 115.424L142.641 64.8532H83.2941C83.2941 64.8532 80.2484 101.022 114.337 115.424Z" fill="#C4C4C4"/>
<path d="M67.3315 85.916V95.4517H74.219V85.916H67.3315Z" fill="#C4C4C4"/>
<path d="M206.061 68.2076L217.273 86.5975L233.806 76.3802L232.034 39.6006L216.682 37.556L211.372 51.8625L219.636 57.9904L216.682 64.1184L207.828 58.672L206.061 68.2076Z" fill="#C4C4C4"/>
<path d="M172.755 127.632H204.64L211.917 144.131H172.082L172.755 127.632Z" fill="#C4C4C4"/>
<path d="M192.544 100.169H173.869L172.939 123.057H202.626L192.544 100.169Z" fill="#C4C4C4"/>
<path d="M77.5 4.7825L78.1985 5.15587" stroke="#076BE0" stroke-linejoin="round"/>
<path d="M79.6123 5.90894L118.503 26.6634" stroke="#076BE0" stroke-linejoin="round" stroke-dasharray="3.03 3.03"/>
<path d="M119.21 27.0366L119.909 27.41V28.2989" stroke="#076BE0" stroke-linejoin="round"/>
<path d="M119.91 30.0471V57.1488" stroke="#076BE0" stroke-linejoin="round" stroke-dasharray="2.95 2.95"/>
<path d="M119.909 58.0202V58.9092H119.138" stroke="#076BE0" stroke-linejoin="round"/>
<path d="M117.599 58.909H78.3335" stroke="#076BE0" stroke-linejoin="round" stroke-dasharray="3 3"/>
<path d="M77.5617 58.909H76.7913C76.7913 58.909 76.7296 59.2112 76.6475 59.7801" stroke="#263238" stroke-width="0.5" stroke-linejoin="round"/>
<path d="M76.4166 61.517C75.6154 68.6999 74.8758 89.3181 89.339 105.705C99.3903 117.078 111.578 121.416 115.764 122.637" stroke="#076BE0" stroke-linejoin="round" stroke-dasharray="2.97 2.97"/>
<path d="M116.503 122.844C117.017 122.974 117.253 123.033 117.253 123.033L117.679 122.293" stroke="#076BE0" stroke-linejoin="round"/>
<path d="M118.506 120.752L151.757 60.3255" stroke="#076BE0" stroke-linejoin="round" stroke-dasharray="3.06 3.06"/>
<path d="M152.179 59.5612L152.59 58.8085H153.36" stroke="#076BE0" stroke-linejoin="round"/>
<path d="M154.907 58.8085H175.785" stroke="#076BE0" stroke-linejoin="round" stroke-dasharray="3.01 3.01"/>
<path d="M176.56 58.8085H177.33L177.808 59.5019" stroke="#076BE0" stroke-linejoin="round"/>
<path d="M178.753 60.8589L214.074 111.755" stroke="#076BE0" stroke-linejoin="round" stroke-dasharray="2.93 2.93"/>
<path d="M214.546 112.437L215.024 113.131" stroke="#263238" stroke-width="0.5" stroke-linejoin="round"/>
<path d="M77.6544 61.8429L71.5887 66.9337L66.0572 61.997C64.6825 60.8715 63.5818 59.3568 62.861 57.5986C62.1403 55.8404 61.8236 53.8978 61.9416 51.9575C62.0595 50.0173 62.608 48.1447 63.5344 46.5198C64.4608 44.8949 65.7339 43.5723 67.2313 42.6792C68.7286 41.7861 70.4 41.3526 72.0845 41.4202C73.7691 41.4879 75.4103 42.0545 76.8502 43.0655C78.2902 44.0766 79.4805 45.4981 80.3067 47.1934C81.133 48.8887 81.5674 50.8008 81.5681 52.7458C81.5893 54.5119 81.2453 56.2584 80.5647 57.8404C79.884 59.4225 78.8864 60.7946 77.6544 61.8429Z" fill="white" stroke="#263238" stroke-width="0.5" stroke-linecap="round" stroke-linejoin="round"/>
<path d="M63.1148 52.6864C63.1158 54.6588 63.6237 56.5867 64.5741 58.2261C65.5245 59.8656 66.8749 61.1431 68.4545 61.8971C70.034 62.6511 71.7719 62.8478 73.4483 62.4623C75.1248 62.0768 76.6645 61.1264 77.8729 59.7312C79.0813 58.336 79.904 56.5588 80.2371 54.6241C80.5702 52.6895 80.3988 50.6843 79.7444 48.8621C79.09 47.0399 77.982 45.4825 76.5606 44.3868C75.1393 43.291 73.4682 42.7062 71.7588 42.7062C70.6221 42.7015 69.4958 42.9565 68.4449 43.4564C67.394 43.9564 66.4392 44.6914 65.6357 45.6192C64.8321 46.547 64.1957 47.6491 63.763 48.862C63.3304 50.075 63.1101 51.3747 63.1148 52.6864Z" fill="#B9E5FA" stroke="#263238" stroke-width="0.5" stroke-linejoin="round"/>
<path d="M71.7575 62.6606C73.8068 62.6629 75.7898 61.8225 77.3506 60.2901C77.2189 58.6644 76.5735 57.1515 75.5373 56.0396C74.5011 54.9277 73.1466 54.2946 71.7319 54.2609C70.3172 54.2272 68.9412 54.7953 67.8661 55.8569C66.791 56.9185 66.0921 58.3994 65.9023 60.0174C67.4949 61.7199 69.5866 62.6641 71.7575 62.6606Z" fill="#263238" stroke="#263238" stroke-width="0.5" stroke-linejoin="round"/>
<path d="M75.3767 50.4875C75.714 48.0903 74.3032 45.8314 72.2256 45.4423C70.1481 45.0532 68.1905 46.6811 67.8533 49.0784C67.5161 51.4756 68.9269 53.7344 71.0044 54.1236C73.0819 54.5127 75.0395 52.8848 75.3767 50.4875Z" fill="#263238" stroke="#263238" stroke-width="0.5" stroke-linejoin="round"/>
<path d="M147.361 91.4036L141.306 96.4944L135.779 91.5577C134.403 90.4319 133.301 88.9164 132.579 87.157C131.858 85.3977 131.54 83.4536 131.658 81.5119C131.776 79.5702 132.325 77.6961 133.252 76.0699C134.179 74.4437 135.453 73.1202 136.952 72.2267C138.451 71.3331 140.123 70.8996 141.809 70.9678C143.495 71.0361 145.137 71.6037 146.578 72.6162C148.019 73.6287 149.21 75.0519 150.036 76.749C150.862 78.4461 151.296 80.36 151.295 82.3064C151.314 84.0746 150.967 85.8224 150.283 87.4046C149.598 88.9869 148.597 90.3578 147.361 91.4036Z" fill="white" stroke="#263238" stroke-width="0.5" stroke-linecap="round" stroke-linejoin="round"/>
<path d="M132.821 82.2236C132.821 84.1963 133.328 86.1248 134.278 87.765C135.227 89.4053 136.577 90.6837 138.157 91.4386C139.736 92.1935 141.474 92.3911 143.151 92.0062C144.828 91.6213 146.368 90.6714 147.577 89.2765C148.786 87.8815 149.609 86.1043 149.943 84.1695C150.276 82.2347 150.105 80.2292 149.451 78.4066C148.797 76.5841 147.689 75.0263 146.267 73.9303C144.846 72.8344 143.174 72.2494 141.465 72.2494C140.329 72.2463 139.204 72.5021 138.154 73.0023C137.104 73.5024 136.15 74.237 135.347 75.1638C134.543 76.0906 133.907 77.1914 133.473 78.403C133.04 79.6145 132.818 80.9129 132.821 82.2236Z" fill="#B9E5FA" stroke="#263238" stroke-width="0.5" stroke-linejoin="round"/>
<path d="M141.465 92.2035C143.514 92.2048 145.497 91.3644 147.058 89.8329C146.926 88.2073 146.281 86.6943 145.245 85.5824C144.209 84.4706 142.854 83.8374 141.439 83.8038C140.025 83.7701 138.649 84.3382 137.574 85.3998C136.499 86.4614 135.8 87.9423 135.61 89.5603C137.204 91.2602 139.295 92.2041 141.465 92.2035Z" fill="#263238" stroke="#263238" stroke-width="0.5" stroke-linejoin="round"/>
<path d="M141.316 83.7172C143.421 83.7172 145.127 81.7484 145.127 79.3197C145.127 76.8911 143.421 74.9223 141.316 74.9223C139.211 74.9223 137.505 76.8911 137.505 79.3197C137.505 81.7484 139.211 83.7172 141.316 83.7172Z" fill="#263238" stroke="#263238" stroke-width="0.5" stroke-linejoin="round"/>
<path d="M191.126 88.1737C190.669 88.667 190.318 89.2755 190.099 89.9516C190.099 90.2242 192.949 94.7521 193.345 95.2854C193.808 95.8574 194.302 96.3958 194.824 96.8974L202.631 107.838C202.374 107.968 201.722 108.3 201.603 108.377C201.485 108.454 201.804 108.792 202.215 108.839C202.562 108.847 202.908 108.795 203.242 108.685L207.9 114.944C208.723 115.251 209.604 115.286 210.443 115.044C212.156 114.171 213.721 112.953 215.065 111.447C216.642 109.728 217.119 109.213 217.119 109.213C217.263 109.054 217.391 108.877 217.5 108.685C217.566 108.513 218.116 105.722 217.859 105.058C217.757 104.747 217.579 104.477 217.345 104.282L213.576 98.948C213.758 98.5724 213.904 98.1749 214.012 97.7627C214.038 97.4664 213.791 96.9863 213.678 97.093C213.565 97.1997 213.062 97.982 212.954 98.1479L204.957 86.8047C204.957 86.8047 203.981 85.1038 203.35 84.2207C202.718 83.3377 200.576 80.6649 200.15 80.5286C200.001 80.4834 199.846 80.4753 199.695 80.505C199.543 80.5346 199.399 80.6013 199.272 80.7004C199.189 80.7834 196.493 82.7925 195.569 83.5629C194.022 85.0134 192.539 86.5523 191.126 88.1737Z" fill="#263238" stroke="#263238" stroke-width="0.5" stroke-linecap="round" stroke-linejoin="round"/>
<path d="M211.695 98.4742H212.296L207.854 92.1744L206.436 92.6485C206.436 92.6485 210.771 98.0357 211.695 98.4742Z" fill="white"/>
<path d="M205.682 91.6406L206.94 90.9413L202.168 84.8489C202.294 85.7263 202.481 86.5905 202.728 87.4328C202.939 87.6936 205.682 91.6406 205.682 91.6406Z" fill="white"/>
<path d="M192.908 90.8823C193.215 90.1606 193.641 89.5145 194.161 88.9799C195.019 88.1147 198.958 84.2388 199.364 84.0965C199.786 83.9971 200.219 83.9731 200.648 84.0254C200.432 83.3315 200.126 82.6799 199.739 82.0934C199.574 81.926 199.372 81.8137 199.156 81.7688C198.94 81.7239 198.717 81.748 198.511 81.8386C198.347 81.9393 194.916 84.8018 194.012 85.8389C193.13 86.777 192.29 87.766 191.495 88.8021C191.445 89.3128 191.559 89.827 191.814 90.2482C192.156 90.5088 192.523 90.7216 192.908 90.8823Z" fill="white"/>
<path d="M193.488 92.9807C193.488 92.9807 195.003 93.84 195.25 94.0474C195.496 94.2549 198.527 98.3797 198.527 98.3797L197.618 99.6302L194.536 95.1438L193.488 92.9807Z" fill="white"/>
<path d="M198.511 100.75L199.225 99.3571C199.225 99.3571 200.956 102.048 201.336 102.783L203.215 106.415L203.072 107.21L198.511 100.75Z" fill="white"/>
<path d="M202.188 103.173C202.188 103.173 207.15 99.2856 208.937 96.6009L213.411 101.277C213.629 101.567 213.821 101.88 213.986 102.213C213.986 102.367 213.986 102.753 213.986 102.753C213.986 102.753 212.856 105.716 211.3 107.109C209.933 108.274 208.435 109.219 206.847 109.918C206.586 109.929 206.325 109.878 206.082 109.77L205.363 109.301L202.188 103.173Z" fill="white"/>
<path d="M215.353 103.269C215.353 103.269 216.308 105.87 216.349 106.925C216.385 107.476 216.346 108.03 216.236 108.567C216.592 108.116 216.86 107.583 217.022 107.002C217.087 106.44 217.036 105.867 216.873 105.331C216.412 104.6 215.904 103.911 215.353 103.269Z" fill="white"/>
<path d="M206.611 111.572C207.415 112.245 208.26 112.853 209.138 113.391C209.676 113.554 210.23 113.636 210.786 113.634C210.391 113.885 209.972 114.084 209.538 114.227C208.92 114.117 208.323 113.886 207.772 113.545C207.307 112.953 206.916 112.289 206.611 111.572Z" fill="white"/>
<path d="M134.974 147.605C134.974 147.605 130.038 162.136 128.862 166.741C127.686 171.346 127.218 178.393 127.218 178.393L164.881 182.79C164.881 182.79 171.363 180.834 170.895 176.769C170.428 172.703 166.201 165.141 160.31 158.616C154.419 152.091 145.518 146.692 142.704 146.692C140.114 146.819 137.532 147.124 134.974 147.605Z" fill="#757575" stroke="#263238" stroke-width="0.5" stroke-linecap="round" stroke-linejoin="round"/>
<path d="M267.037 163.149L269.25 174.795L260.884 176.78L267.037 163.149Z" fill="#263238" stroke="#263238" stroke-width="0.5" stroke-linecap="round" stroke-linejoin="round"/>
<path d="M292.306 175.696C290.683 170.392 288.249 170.078 288.249 170.078L281.213 149.163C281.213 149.163 273.37 150.408 270.124 153.531C266.878 156.654 259.297 176.644 259.297 176.644L265.25 220.038C265.25 220.038 289.872 214.111 290.683 213.483C291.495 212.855 292.306 206.928 292.579 203.183C292.851 199.437 293.95 181.006 292.306 175.696ZM262.343 174.937C262.343 174.937 268.758 159.037 270.221 156.761C271.29 155.253 272.635 154.039 274.161 153.205L279.245 151.86L284.381 170.824L262.343 174.937Z" fill="white" stroke="#263238" stroke-width="0.5" stroke-linecap="round" stroke-linejoin="round"/>
<path d="M262.117 176.224L269.251 174.807C269.251 174.807 272.081 168.555 272.944 167.695C273.496 167.103 274.172 166.687 274.906 166.487C275.64 166.288 276.406 166.312 277.129 166.558C279.22 167.15 283.647 169.965 283.406 171.814C283.164 173.663 282.789 174.226 280.452 174.653C278.116 175.08 271.957 175.08 271.957 175.08C271.957 175.08 270.36 178.043 269.99 178.636C269.621 179.228 263.591 181.474 263.591 181.474C263.591 181.474 262.851 179.187 262.117 176.224Z" fill="#263238" stroke="#263238" stroke-width="0.5" stroke-linecap="round" stroke-linejoin="round"/>
<path d="M237.916 239.708C237.916 239.708 236.452 241.219 235.758 241.835C235.065 242.452 233.909 243.613 232.759 244.058C231.608 244.502 230.987 244.769 231.064 245.48C231.141 246.191 231.141 246.903 231.526 246.991C231.911 247.08 245.763 246.991 245.763 246.991C246.053 246.27 246.16 245.469 246.072 244.68C246.022 243.705 245.84 242.745 245.532 241.835C245.532 241.835 241.994 240.686 240.453 239.708C238.912 238.73 237.916 239.708 237.916 239.708Z" fill="white" stroke="#263238" stroke-width="0.5" stroke-linecap="round" stroke-linejoin="round"/>
<path d="M245.995 246.191H231.136C231.188 246.606 231.275 246.932 231.527 246.991C231.912 247.08 245.764 246.991 245.764 246.991C245.877 246.74 245.956 246.47 245.995 246.191Z" fill="white" stroke="#263238" stroke-width="0.5" stroke-linecap="round" stroke-linejoin="round"/>
<path d="M233.37 179.133C232.787 184.174 232.787 189.282 233.37 194.323C234.397 202.027 235.425 207.557 235.425 207.557C235.425 207.557 236.965 215.261 237.119 217.768C237.274 220.275 238.737 233.402 238.66 233.669C238.531 234.099 238.454 234.548 238.429 235.002C238.429 235.441 237.428 236.063 237.582 236.596C237.735 237.626 237.838 238.665 237.89 239.708C237.89 239.708 239.657 239.352 240.427 239.708C241.198 240.063 244.659 241.486 244.659 241.486L245.507 241.835C245.777 241.59 245.999 241.282 246.159 240.931C246.318 240.579 246.411 240.193 246.431 239.797C246.431 238.552 245.044 237.13 245.044 237.13C245.044 237.13 245.969 236.685 246.072 236.241C246.174 235.796 245.686 234.202 245.686 233.935C245.686 233.669 245.532 231.002 245.532 230.468C245.532 229.935 245.609 223.185 245.609 222.391C245.609 221.596 244.916 209.352 244.916 209.352L244.151 200.463C244.151 200.463 245.995 210.496 246.765 213.697C247.535 216.897 249.765 230.291 249.847 230.747C250.018 232.122 250.121 233.507 250.155 234.895C250.078 235.162 249.235 235.779 249.313 236.134C249.39 236.49 249.924 240.935 249.924 240.935L255.466 241.468C255.811 240.718 256.12 239.947 256.39 239.157C256.698 238.179 256.159 237.29 256.159 236.934C256.159 236.579 256.621 236.667 256.467 235.251C256.313 233.835 256.159 232.673 256.159 232.673C256.159 232.673 255.774 231.962 255.697 229.473C255.62 226.984 256.852 220.15 256.005 216.245C255.157 212.339 254.161 209.05 254.084 204.783C254.007 200.516 254.007 192.527 253.699 190.4C253.391 188.272 252.898 181.599 252.898 181.599L252.697 180.627L233.37 179.133Z" fill="#8C8C8C" stroke="#263238" stroke-width="0.5" stroke-linecap="round" stroke-linejoin="round"/>
<path d="M239.991 191.395L242.918 192.989L243.92 199.473" stroke="#263238" stroke-width="0.5" stroke-linecap="round" stroke-linejoin="round"/>
<path d="M250.535 239.636C250.265 240.766 249.906 241.865 249.462 242.92C248.922 243.986 248.075 244.609 247.844 245.231C247.698 245.808 247.646 246.41 247.69 247.009H255.907C255.907 247.009 256.524 246.12 256.524 243.986C256.524 241.853 255.83 240.792 255.214 239.548C254.598 238.303 252.538 237.396 250.535 239.636Z" fill="white" stroke="#263238" stroke-width="0.5" stroke-linecap="round" stroke-linejoin="round"/>
<path d="M256.354 245.782L256.226 245.747H247.72C247.674 246.159 247.664 246.576 247.689 246.991H255.907C256.121 246.625 256.273 246.214 256.354 245.782Z" fill="white" stroke="#263238" stroke-width="0.5" stroke-linecap="round" stroke-linejoin="round"/>
<path d="M238.665 140.955C237.843 141.931 236.926 142.794 235.932 143.527C234.725 144.291 232.732 144.991 232.373 145.826C232.013 146.662 231.587 152.44 232.132 155.433C232.437 157.157 232.841 158.855 233.339 160.518L233.76 171.589L233.097 180.087C233.097 180.087 240.401 181.201 245.044 181.824C247.653 182.221 250.3 182.151 252.892 181.616C252.892 181.616 253.133 176.531 253.195 173.912C253.256 171.292 253.374 158.799 253.374 158.799L257.057 165.911C257.057 165.911 259.625 167.819 263.765 164.726C264.936 163.849 260.436 158.284 260.139 156.547C259.841 154.811 257.899 151.071 257.899 151.071C257.899 151.071 256.358 145.643 255.126 144.25C253.893 142.857 252.285 142.507 250.539 142.229C248.956 141.848 247.409 141.294 245.917 140.575L238.665 140.955Z" fill="#F44336" stroke="#263238" stroke-width="0.5" stroke-linecap="round" stroke-linejoin="round"/>
<path d="M259.79 158.515C259.79 158.515 257.89 158.818 257.371 162.605" stroke="#263238" stroke-width="0.5" stroke-linecap="round" stroke-linejoin="round"/>
<path d="M256.158 160.015C256.158 160.015 257.458 158.515 258.927 158.515" stroke="#263238" stroke-width="0.5" stroke-linecap="round" stroke-linejoin="round"/>
<path d="M233.535 127.147C233.535 127.147 233.684 133.18 233.889 134.169C234.094 135.159 235.497 137.186 236.098 138.11C236.619 138.779 237.336 139.201 238.111 139.296C238.26 139.296 238.666 139.995 238.666 140.979C238.666 141.963 238.311 142.164 238.363 144.979C238.399 146.747 238.532 148.511 238.763 150.26C240.215 149.018 241.546 147.6 242.733 146.028C245.25 142.893 245.902 140.576 245.902 140.576C245.258 139.883 244.759 139.029 244.444 138.081C244.094 136.747 244.141 133.381 244.141 133.381C244.141 133.381 245.954 131.757 246.051 130.827C246.149 129.896 245.399 128.16 245.399 128.16C245.399 128.16 244.546 124.681 243.591 122.939C242.636 121.196 242.482 120.325 239.318 121.315C236.154 122.305 235.045 122.53 234.038 123.401C233.465 123.857 233.055 124.537 232.882 125.315L233.535 127.147Z" fill="#FAD7B0" stroke="#263238" stroke-width="0.5" stroke-linecap="round" stroke-linejoin="round"/>
<path d="M238.111 139.272C238.617 139.213 239.12 139.116 239.616 138.981C240.17 138.809 240.925 138.46 240.925 138.46L238.666 140.955L238.111 139.272Z" fill="#263238" stroke="#263238" stroke-width="0.5" stroke-linecap="round" stroke-linejoin="round"/>
<path d="M235.368 133.748C235.368 133.748 235.717 134.388 236.221 134.157C236.724 133.926 237.012 133.76 237.012 133.76" stroke="#263238" stroke-width="0.5" stroke-linecap="round" stroke-linejoin="round"/>
<path d="M236.755 135.444C237.3 135.51 237.851 135.411 238.352 135.156C238.854 134.901 239.29 134.5 239.616 133.992" stroke="#263238" stroke-width="0.5" stroke-linecap="round" stroke-linejoin="round"/>
<path d="M237.407 129.179C237.407 129.179 239.014 128.657 239.867 129.179" stroke="#263238" stroke-width="0.5" stroke-linecap="round" stroke-linejoin="round"/>
<path d="M235.296 129.404C235.296 129.404 234.438 128.77 233.935 129.523" stroke="#263238" stroke-width="0.5" stroke-linecap="round" stroke-linejoin="round"/>
<path d="M234.808 130.809C234.849 131.194 234.736 131.526 234.561 131.55C234.387 131.573 234.212 131.283 234.171 130.898C234.13 130.513 234.243 130.187 234.418 130.163C234.592 130.139 234.782 130.43 234.808 130.809Z" fill="#263238"/>
<path d="M238.403 130.649C238.439 131.034 238.331 131.36 238.156 131.383C237.982 131.407 237.802 131.123 237.761 130.737C237.72 130.352 237.833 130.026 238.007 129.997C238.182 129.967 238.377 130.263 238.403 130.649Z" fill="#263238"/>
<path d="M240.822 123.555C240.822 123.555 239.117 125.06 238.562 125.179C238.008 125.297 236.051 124.539 235.342 124.48C234.633 124.42 233.334 125.665 233.334 125.665L233.534 127.17C233.534 127.17 231.624 126.649 231.223 125.783C230.822 124.918 232.178 123.751 232.127 123.46C232.076 123.17 231.372 122.068 231.875 121.718C232.761 121.265 233.668 120.869 234.592 120.533C234.592 120.533 235.748 117.747 236.549 117.688C237.328 117.7 238.103 117.797 238.866 117.978C239.102 117.73 239.379 117.54 239.681 117.42C239.983 117.299 240.303 117.251 240.622 117.279C241.577 117.457 242.985 119.484 242.985 119.484C242.985 119.484 245.096 119.253 245.501 120.296C245.907 121.339 246.303 122.737 246.015 123.851C245.758 124.977 245.555 126.119 245.409 127.271V128.142C244.957 128.233 244.528 128.436 244.151 128.735C243.75 129.138 243.801 129.488 243.498 129.778C243.195 130.068 243.046 130.068 242.846 129.95C242.646 129.831 242.543 129.488 242.445 128.794C242.348 128.101 242.24 127.923 241.839 127.745C241.323 127.524 240.859 127.167 240.483 126.702C240.083 126.181 239.579 125.718 239.877 125.25C240.175 124.782 240.822 123.555 240.822 123.555Z" fill="#263238" stroke="#263238" stroke-width="0.5" stroke-linecap="round" stroke-linejoin="round"/>
<path d="M251.141 155.155L253.375 158.776L249.631 157.318" stroke="#263238" stroke-width="0.5" stroke-linecap="round" stroke-linejoin="round"/>
<path d="M151.002 180.704C150.812 180.011 156.97 181.107 156.97 181.107C156.97 181.107 158.917 171.18 158.377 170.114C157.838 169.047 152.805 167.002 152.805 167.002L141.115 166.291C141.115 166.291 136.082 168.745 136.005 169.373C135.964 169.705 132.682 174.392 131.285 178.102L151.002 180.704Z" fill="#B9E5FA" stroke="#263238" stroke-width="0.5" stroke-linecap="round" stroke-linejoin="round"/>
<path d="M143.545 165.769C143.545 165.769 142.811 166.617 142.811 169.011C142.811 171.405 144.156 174.511 144.156 174.511L148.779 171.696L154.177 174.878C154.177 174.878 154.69 168.952 152.785 167.002C150.879 165.052 144.644 164.08 143.545 165.769Z" fill="#00386C" stroke="#263238" stroke-width="0.5" stroke-linecap="round" stroke-linejoin="round"/>
<path d="M144.357 166.848C144.927 168.72 145.598 170.548 146.365 172.324C147.392 174.54 149.693 176.158 149.693 176.158C149.693 176.158 150.844 171.731 150.972 169.521C151.068 168.387 151.025 167.244 150.844 166.125L144.357 166.848Z" fill="#FAD7B0" stroke="#263238" stroke-width="0.5" stroke-linecap="round" stroke-linejoin="round"/>
<path d="M140.792 160.915C140.792 160.915 141.218 165.787 141.649 166.214C142.081 166.64 144.341 166.848 144.341 166.848L149.235 167.203C149.749 166.143 150.031 160.092 148.321 155.41C146.611 150.728 144.464 149.969 144.033 150.817C144.033 150.817 141.526 154.77 141.649 155.617C141.773 156.465 142.014 156.891 141.891 157.312C141.768 157.733 140.304 158.497 140.119 159.292C139.934 160.086 140.792 160.915 140.792 160.915Z" fill="#FAD7B0" stroke="#263238" stroke-width="0.5" stroke-linecap="round" stroke-linejoin="round"/>
<path d="M141.968 161.833C141.968 161.833 143.314 161.833 143.992 161.128" stroke="#263238" stroke-width="0.5" stroke-linecap="round" stroke-linejoin="round"/>
<path d="M143.012 157.454C143.202 157.398 143.4 157.395 143.591 157.444C143.782 157.493 143.961 157.595 144.111 157.739" stroke="#263238" stroke-width="0.5" stroke-linecap="round" stroke-linejoin="round"/>
<path d="M142.585 155.901C142.585 155.901 143.746 154.633 144.419 156.328" stroke="#263238" stroke-width="0.5" stroke-linecap="round" stroke-linejoin="round"/>
<path d="M144.049 150.817C144.049 150.817 144.563 155.617 145.95 159.078C146.529 160.646 147.216 162.158 148.004 163.6C148.004 163.6 148.004 166.356 147.27 167.156C146.855 167.614 146.302 167.867 145.729 167.861C145.729 167.861 144.871 169.272 147.624 169.698C150.377 170.125 151.116 168.638 152.092 168.513C152.581 168.411 153.082 168.435 153.561 168.584C153.71 168.007 153.731 167.396 153.623 166.806C153.438 165.888 153.32 165.182 153.32 165.182C153.32 165.182 155.153 162.711 155.092 159.884C155.03 157.057 155.765 155.439 154.419 152.121C153.073 148.802 145.975 148.233 144.63 148.162C143.284 148.091 143.089 148.233 142.488 149.347C141.887 150.461 140.1 152.174 140.1 153.442C140.1 154.71 141.872 157.324 141.872 157.324L141.63 155.629C141.63 155.629 143.135 152.725 144.049 150.817Z" fill="#263238" stroke="#263238" stroke-width="0.5" stroke-linecap="round" stroke-linejoin="round"/>
<path d="M188.702 230.255C130.911 228.139 84.0645 233.218 84.0645 241.628C84.0645 245.184 92.4106 248.739 106.401 251.839C93.7562 252.135 84.537 253.024 84.537 254.132C84.537 255.46 98.2708 256.533 115.22 256.533C121.352 256.533 127.058 256.39 131.85 256.147C148.219 258.287 167.741 259.899 188.702 260.669C246.493 262.785 293.334 257.694 293.334 249.296C293.334 240.899 246.493 232.376 188.702 230.255Z" fill="#263238" stroke="#263238" stroke-width="0.5" stroke-linecap="round" stroke-linejoin="round"/>
<path d="M86.7099 219.392C86.7099 219.392 87.9836 222.574 88.8927 223.659C89.8018 224.743 106.217 229.431 106.217 229.431L159.411 242.866L165.857 242.066L188.384 242.902C188.384 242.902 192.878 230.213 187.967 217.714C183.057 205.215 158.517 200.332 151.578 202.892C144.64 205.452 128.389 213.637 116.71 209.145C105.03 204.652 95.7237 195.863 91.8305 197.037C87.9374 198.21 86.0781 205.435 86.0781 208.558C86.0781 211.681 86.7099 219.392 86.7099 219.392Z" fill="#263238" stroke="#263238" stroke-width="0.5" stroke-linecap="round" stroke-linejoin="round"/>
<path d="M201.064 236.774C200.601 223.872 193.118 213.394 184.356 213.365H174.859L175.024 217.987C171.315 222.237 169.056 229.022 169.333 236.679C169.61 244.336 172.353 251.134 176.369 255.407L176.539 260.089H186.035C194.798 260.113 201.526 249.676 201.064 236.774Z" fill="#263238" stroke="#263238" stroke-width="0.5" stroke-linecap="round" stroke-linejoin="round"/>
<path d="M177.939 259.99C186.626 258.88 192.667 247.56 191.434 234.707C190.2 221.853 182.158 212.334 173.472 213.444C164.785 214.554 158.744 225.873 159.977 238.727C161.211 251.58 169.253 261.1 177.939 259.99Z" fill="#757575" stroke="#263238" stroke-width="0.5" stroke-linecap="round" stroke-linejoin="round"/>
<path d="M187.971 244.674C188.131 244.082 188.264 243.489 188.382 242.896C188.495 242.304 188.593 241.676 188.665 241.041C189.184 236.632 188.652 232.143 187.124 228.057L187.098 227.985C186.878 227.393 186.636 226.842 186.379 226.296L186.328 226.196C186.071 225.656 185.814 225.135 185.506 224.637L185.46 224.554C182.892 220.192 179.122 217.395 175.008 217.383C171.485 217.383 168.362 219.404 166.123 222.717C165.972 222.938 165.828 223.163 165.691 223.392C165.553 223.624 165.419 223.855 165.285 224.098C165.152 224.335 165.029 224.578 164.905 224.821C164.787 225.064 164.674 225.313 164.561 225.562V225.597C164.455 225.838 164.352 226.087 164.253 226.344C164.253 226.344 164.253 226.385 164.227 226.403C164.135 226.646 164.043 226.895 163.955 227.144L163.924 227.233C163.837 227.476 163.76 227.725 163.683 227.974C163.683 228.015 163.657 228.051 163.647 228.092C163.575 228.329 163.508 228.578 163.442 228.821C163.426 228.87 163.412 228.919 163.401 228.969C163.339 229.206 163.282 229.449 163.226 229.686C163.215 229.748 163.202 229.81 163.185 229.87C163.133 230.101 163.087 230.338 163.041 230.575C163.041 230.646 163.015 230.718 163 230.795C162.959 231.02 162.923 231.251 162.887 231.476C162.887 231.565 162.861 231.648 162.851 231.731C162.815 231.956 162.789 232.175 162.764 232.401C162.764 232.501 162.764 232.596 162.728 232.691C162.728 232.91 162.692 233.13 162.671 233.349C162.671 233.456 162.671 233.556 162.671 233.663C162.671 233.882 162.646 234.102 162.635 234.321V234.647C162.635 234.878 162.635 235.115 162.635 235.346V235.648C162.635 235.98 162.635 236.318 162.635 236.656C162.635 236.994 162.676 237.474 162.707 237.883C162.707 237.977 162.707 238.072 162.733 238.173C162.764 238.517 162.8 238.866 162.846 239.21C162.846 239.258 162.846 239.311 162.846 239.364C162.952 240.205 163.1 241.038 163.288 241.859C164.098 245.665 165.8 249.14 168.208 251.905L168.29 251.999C168.567 252.302 168.855 252.592 169.148 252.865L169.204 252.918C171.239 254.885 173.797 255.987 176.451 256.041C179.056 256.032 181.568 254.923 183.513 252.924C185.632 250.703 187.176 247.847 187.971 244.674Z" fill="white" stroke="#263238" stroke-width="0.5" stroke-linecap="round" stroke-linejoin="round"/>
<path d="M187.335 237.354C187.262 235.185 186.889 233.042 186.231 231.007L181.008 234.782C181.242 235.609 181.378 236.468 181.414 237.337V237.722L187.341 238.836C187.356 238.344 187.356 237.858 187.335 237.354Z" fill="#263238" stroke="#263238" stroke-width="0.5" stroke-linecap="round" stroke-linejoin="round"/>
<path d="M178.085 230.432C178.644 230.79 179.144 231.257 179.564 231.813L183.242 225.294C182.03 223.727 180.51 222.52 178.809 221.774L178.085 230.432Z" fill="#263238" stroke="#263238" stroke-width="0.5" stroke-linecap="round" stroke-linejoin="round"/>
<path d="M180.664 241.586C180.412 242.183 180.083 242.733 179.688 243.216L182.708 251.009C184.226 249.501 185.405 247.592 186.144 245.444L180.664 241.586Z" fill="#263238" stroke="#263238" stroke-width="0.5" stroke-linecap="round" stroke-linejoin="round"/>
<path d="M171.783 233.283L166.472 229.01C165.653 231.249 165.217 233.65 165.188 236.08L171.141 236.276C171.196 235.242 171.413 234.227 171.783 233.283Z" fill="#263238" stroke="#263238" stroke-width="0.5" stroke-linecap="round" stroke-linejoin="round"/>
<path d="M173.597 230.682C174.025 230.333 174.506 230.078 175.014 229.929L174.146 221.265C172.248 221.677 170.505 222.753 169.154 224.346L173.597 230.682Z" fill="#263238" stroke="#263238" stroke-width="0.5" stroke-linecap="round" stroke-linejoin="round"/>
<path d="M177.1 244.816C176.913 244.847 176.724 244.863 176.535 244.864C176.006 244.858 175.484 244.737 174.994 244.508L172.077 251.975C173.525 252.985 175.182 253.528 176.874 253.546C177.33 253.546 177.785 253.505 178.235 253.421L177.1 244.816Z" fill="#263238" stroke="#263238" stroke-width="0.5" stroke-linecap="round" stroke-linejoin="round"/>
<path d="M171.743 240.549L165.857 242.066C166.426 244.439 167.402 246.656 168.728 248.585L172.503 242.155C172.201 241.652 171.946 241.114 171.743 240.549Z" fill="#263238" stroke="#263238" stroke-width="0.5" stroke-linecap="round" stroke-linejoin="round"/>
<path d="M111.979 223.73C111.758 212.92 108.25 204.137 104.141 204.119H94.665L95.4509 243.263H104.927C109.041 243.287 112.194 234.539 111.979 223.73Z" fill="#263238" stroke="#263238" stroke-width="0.5" stroke-linecap="round" stroke-linejoin="round"/>
<path d="M95.5625 243.261C99.6708 243.119 102.775 234.242 102.495 223.432C102.215 212.623 98.6581 203.975 94.5497 204.116C90.4413 204.258 87.3376 213.135 87.6172 223.945C87.8969 234.754 91.4541 243.402 95.5625 243.261Z" fill="#757575" stroke="#263238" stroke-width="0.5" stroke-linecap="round" stroke-linejoin="round"/>
<path d="M100.818 230.35C100.89 229.87 100.952 229.372 101.008 228.862C101.065 228.353 101.106 227.837 101.142 227.31C101.221 226.117 101.249 224.92 101.224 223.724C101.182 221.264 100.911 218.816 100.418 216.423V216.363C100.315 215.878 100.202 215.409 100.084 214.953V214.864C99.9657 214.414 99.8373 213.981 99.6986 213.56C99.6986 213.56 99.6986 213.513 99.6986 213.495C98.4917 209.833 96.7248 207.492 94.7937 207.48C93.1399 207.48 91.6761 209.175 90.6232 211.954C90.5513 212.138 90.4845 212.328 90.4178 212.547C90.3561 212.737 90.2894 212.938 90.2277 213.14C90.1661 213.341 90.1096 213.543 90.0531 213.732C89.9966 213.934 89.9401 214.141 89.8887 214.325C89.8374 214.532 89.7912 214.74 89.7398 214.947C89.7422 214.965 89.7422 214.983 89.7398 215C89.6987 215.202 89.6525 215.415 89.6114 215.593V215.664C89.5754 215.872 89.5344 216.079 89.4984 216.286V216.381C89.4676 216.589 89.4316 216.79 89.4008 216.974V217.098C89.37 217.294 89.3443 217.495 89.3186 217.691C89.3186 217.744 89.3186 217.798 89.3186 217.845C89.293 218.041 89.2724 218.236 89.2519 218.438C89.2519 218.497 89.2519 218.556 89.2519 218.621C89.2519 218.811 89.2159 219.001 89.2005 219.214C89.2005 219.291 89.2005 219.356 89.2005 219.433C89.2005 219.617 89.1748 219.807 89.1646 219.99C89.1646 220.073 89.1646 220.151 89.1646 220.233C89.1646 220.417 89.1646 220.601 89.1646 220.785C89.1646 220.874 89.1646 220.957 89.1646 221.045C89.1646 221.229 89.1646 221.413 89.1646 221.597C89.1646 221.691 89.1646 221.78 89.1646 221.875C89.1646 222.071 89.1646 222.266 89.1646 222.468C89.1646 222.551 89.1646 222.634 89.1646 222.717C89.1646 222.995 89.1646 223.28 89.1646 223.564C89.1646 223.849 89.1646 224.252 89.2005 224.589C89.2005 224.672 89.2005 224.749 89.2005 224.832C89.2005 225.123 89.2313 225.425 89.2519 225.698C89.2519 225.745 89.2519 225.787 89.2519 225.834C89.3032 226.545 89.3751 227.239 89.4573 227.92C89.7704 230.868 90.554 233.723 91.7685 236.342L91.8096 236.419C91.938 236.673 92.0716 236.916 92.2102 237.142C92.2157 237.159 92.2245 237.176 92.2359 237.189C93.2323 238.837 94.4033 239.803 95.636 239.809C96.8687 239.815 98.014 238.848 98.9488 237.189C99.9432 235.067 100.578 232.746 100.818 230.35Z" fill="white" stroke="#263238" stroke-width="0.5" stroke-linecap="round" stroke-linejoin="round"/>
<path d="M292.542 229.301C292.08 216.399 284.602 205.915 275.84 205.891H266.338C257.576 205.891 250.853 216.304 251.315 229.206C251.777 242.108 259.255 252.586 268.017 252.61H277.519C286.281 252.639 293.004 242.197 292.542 229.301Z" fill="#263238" stroke="#263238" stroke-width="0.5" stroke-linecap="round" stroke-linejoin="round"/>
<path d="M296.313 221.028C296.313 221.028 295.959 212.861 295.075 210.004C294.192 207.148 291.536 202.893 291.536 202.893C291.536 202.893 288.886 195.745 284.464 191.259C280.042 186.773 272.79 182.245 271.023 181.226C269.256 180.206 266.95 179.596 263.591 176.941C260.232 174.286 239.359 157.549 232.816 153.057C226.272 148.565 212.117 146.325 209.287 145.714C206.457 145.104 173.915 142.443 162.595 142.443C151.275 142.443 127.927 143.035 115.015 148.766C115.015 148.766 110.767 150.195 110.238 151.623C109.709 153.051 109.355 154.076 109.355 154.076L96.6225 175.512C96.6225 175.512 92 175.103 90.6081 179.596C89.2163 184.088 89.7247 190.204 89.7247 190.204C89.7247 190.204 86.3606 199.799 86.186 206.94C86.0649 211.098 86.2367 215.26 86.6996 219.386C86.6996 219.386 85.8162 206.348 88.4715 202.241C91.1269 198.134 96.6071 201.221 98.7437 208.57C100.88 215.919 103.366 229.591 103.366 229.591L159.437 242.861C159.437 242.861 156.581 225.721 160.31 215.931C164.039 206.14 181.368 206.745 184.542 224.501C187.716 242.256 186.663 245.522 186.663 245.522C186.663 245.522 198.517 248.378 234.598 247.768C270.679 247.157 290.494 242.256 295.799 240.656C295.799 240.656 297.037 233.106 297.391 228.614C297.631 226.019 297.258 223.398 296.313 221.028ZM167.721 179.999C167.491 180.636 167.127 181.198 166.663 181.634C165.246 183.264 161.358 181.634 161.358 181.634C161.358 181.634 144.527 178.547 129.478 175.838C130.382 164.691 134.866 153.91 137.608 148.251C140.464 148.517 146.632 149.436 153.751 155.303C161.887 162.042 168.075 178.979 167.721 179.999Z" fill="white" stroke="#263238" stroke-width="0.5" stroke-linecap="round" stroke-linejoin="round"/>
<path d="M136.005 169.372C136.005 169.372 129.097 178.671 128.84 179.702C128.583 180.733 129.225 184.129 131.655 184.277C134.084 184.425 147.505 178.831 147.505 178.831L139.287 177.563L139.96 175.275" fill="#B9E5FA"/>
<path d="M136.005 169.372C136.005 169.372 129.097 178.671 128.84 179.702C128.583 180.733 129.225 184.129 131.655 184.277C134.084 184.425 147.505 178.831 147.505 178.831L139.287 177.563L139.96 175.275" stroke="#263238" stroke-width="0.5" stroke-linecap="round" stroke-linejoin="round"/>
<path d="M132.297 176.899L139.297 177.563" stroke="#263238" stroke-width="0.5" stroke-linecap="round" stroke-linejoin="round"/>
<path d="M297.375 228.578C297.614 225.997 297.247 223.389 296.312 221.028C296.312 221.028 296.199 218.414 295.942 215.629C273.811 223.161 234.207 223.671 223.164 222.545C210.478 221.253 187.967 217.715 186.97 213.507C185.974 209.299 177.258 199.728 171.295 197.144C166.159 194.927 106.786 185.439 89.9192 182.772C89.6089 185.233 89.5417 187.726 89.7189 190.204C89.7189 190.204 86.3547 199.799 86.1801 206.94C86.0591 211.098 86.2308 215.26 86.6937 219.386C86.6937 219.386 85.8103 206.348 88.4657 202.241C91.121 198.134 96.6012 201.221 98.7378 208.57C100.874 215.919 103.36 229.591 103.36 229.591L159.431 242.861C159.431 242.861 156.58 225.721 160.309 215.931C164.038 206.14 181.367 206.745 184.541 224.5C187.715 242.256 186.662 245.522 186.662 245.522C186.662 245.522 198.516 248.378 234.597 247.768C270.678 247.157 290.493 242.256 295.799 240.656C295.783 240.62 297.021 233.07 297.375 228.578Z" fill="#D9D9D9"/>
<path d="M157.227 177.083C157.982 172.578 160.504 164.157 160.504 164.157C160.504 164.157 164.695 171.002 166.596 175.802C168.496 180.603 166.596 182.393 164.865 182.79C163.134 183.187 156.38 180.597 156.38 180.597L157.227 177.083Z" fill="#263238" stroke="#263238" stroke-width="0.5" stroke-linecap="round" stroke-linejoin="round"/>
<path d="M132.765 148.233C128.703 148.494 124.663 149.088 120.675 150.011C116.602 151.03 115.189 151.237 114.481 152.049C113.772 152.861 106.895 162.859 104.398 170.001C104.501 170.512 104.747 170.97 105.1 171.303C105.452 171.635 105.89 171.824 106.345 171.838C106.925 171.838 114.352 173.13 123.571 174.801C125.117 168.448 128.22 157.288 132.765 148.233Z" fill="#757575" stroke="#263238" stroke-width="0.5" stroke-linecap="round" stroke-linejoin="round"/>
<path d="M129.637 185.469L124.604 184.42C124.44 184.476 124.287 184.569 124.155 184.694C124.023 184.819 123.913 184.974 123.833 185.148C123.753 185.323 123.705 185.514 123.69 185.71C123.675 185.907 123.694 186.105 123.746 186.293C124.116 187.715 124.773 187.561 124.773 187.561L128.964 188.337C129.24 188.372 129.517 188.285 129.74 188.095C129.964 187.906 130.117 187.626 130.171 187.312C130.397 186.168 130.68 186.02 129.637 185.469Z" fill="#263238" stroke="#263238" stroke-width="0.5" stroke-linecap="round" stroke-linejoin="round"/>
<path d="M104.197 180.407L100.355 179.56C100.225 179.608 100.104 179.686 100 179.789C99.896 179.892 99.8108 180.017 99.7496 180.159C99.6883 180.3 99.6522 180.454 99.6433 180.612C99.6344 180.77 99.6529 180.928 99.6978 181.077C99.9803 182.233 100.489 182.108 100.489 182.108L103.689 182.742C103.906 182.766 104.123 182.693 104.295 182.538C104.467 182.382 104.581 182.156 104.613 181.907C104.777 180.965 104.993 180.858 104.197 180.407Z" stroke="#263238" stroke-width="0.5" stroke-linecap="round" stroke-linejoin="round"/>
<path d="M134.973 147.605C134.973 147.605 127.782 163.013 126.54 175.773" stroke="#263238" stroke-width="0.5" stroke-linecap="round" stroke-linejoin="round"/>
<path d="M124.906 178.386C124.906 178.386 121.63 184.775 121.506 186.956C121.383 189.137 121.758 215.267 122.39 220.061" stroke="#263238" stroke-width="0.5" stroke-linecap="round" stroke-linejoin="round"/>
<path d="M159.508 187.537C159.508 187.537 156.74 198.134 156.616 206.122C156.493 214.111 156.365 229.064 156.365 229.064" stroke="#263238" stroke-width="0.5" stroke-linecap="round" stroke-linejoin="round"/>
<path d="M104.013 172.869C104.013 172.869 98.1014 179.115 97.598 181.166C97.0947 183.217 97.7213 200.623 97.7213 200.623" stroke="#263238" stroke-width="0.5" stroke-linecap="round" stroke-linejoin="round"/>
<path d="M105.148 220.352C105.148 220.352 106.026 223.256 107.916 223.985C109.806 224.714 155.61 234.895 155.61 234.895" stroke="#263238" stroke-width="0.5" stroke-linecap="round" stroke-linejoin="round"/>
<path d="M237.864 229.561C237.864 229.561 272.943 230.118 285.978 225.478C285.978 225.478 284.689 235.5 282.275 237.544C279.861 239.589 262.322 241.693 253.796 242.001C244.14 242.374 238.67 241.26 238.67 241.26L237.864 229.561Z" fill="#263238" stroke="#263238" stroke-width="0.5" stroke-linecap="round" stroke-linejoin="round"/>
<path d="M231.572 204.315L235.111 212.671C235.111 212.671 254.9 213.228 257.155 213.412C259.41 213.596 261.819 214.9 264.397 213.412C266.975 211.925 278.074 210.259 279.358 210.259C280.642 210.259 282.255 211.557 282.255 211.557C282.255 211.557 279.358 203.201 278.233 202.46C277.388 201.967 276.436 201.773 275.496 201.903C275.013 201.903 251.521 199.858 231.572 204.315Z" fill="#263238" stroke="#263238" stroke-width="0.5" stroke-linecap="round" stroke-linejoin="round"/>
<path d="M194.269 187.638C194.269 187.638 185.851 186.145 182.616 187.448C179.38 188.752 180.998 193.801 186.499 198.466C191.999 203.13 196.534 207.616 202.2 208.363C207.865 209.11 217.572 211.539 218.055 209.483C218.537 207.426 216.76 199.965 210.289 194.548C203.817 189.131 194.269 187.638 194.269 187.638Z" fill="#F7DE5E" stroke="#263238" stroke-width="0.5" stroke-linecap="round" stroke-linejoin="round"/>
<path d="M261.911 176.994L260.293 177.557L252.486 177.812C248.377 177.954 242.933 178.126 236.924 178.31C228.629 178.564 219.25 178.831 210.781 179.039C197.833 179.353 186.996 179.513 185.368 179.234C182.095 178.749 179.021 177.154 176.534 174.653C174.661 172.719 173.104 170.412 171.937 167.843C168.049 159.629 158.183 149.554 158.183 149.554C173.714 147.492 210.776 148.245 214.982 148.434C216.284 148.506 217.58 148.682 218.86 148.962C223.349 149.88 229.209 151.925 232.609 154.58C233.21 155.054 234.181 155.801 235.403 156.737C238.244 158.93 242.466 162.16 246.703 165.396L254.094 171.038L261.911 176.994Z" fill="#D9D9D9" stroke="#263238" stroke-width="0.5" stroke-linecap="round" stroke-linejoin="round"/>
<path d="M232.62 154.586C233.221 155.06 234.191 155.807 235.414 156.743L210.761 179.039C197.812 179.353 186.975 179.513 185.347 179.234C182.075 178.749 179 177.155 176.513 174.653L218.86 148.962C223.359 149.886 229.22 151.925 232.62 154.586Z" fill="#757575"/>
<path d="M254.104 171.044L252.486 177.812C248.377 177.954 242.933 178.126 236.924 178.31L246.713 165.402L254.104 171.044Z" fill="#757575"/>
<path d="M227.028 198.744C228.014 199.899 228.969 201.114 229.873 202.406" stroke="#263238" stroke-width="0.5" stroke-linecap="round" stroke-linejoin="round"/>
<path d="M203.169 182.221C203.169 182.221 215.419 186.37 225.326 196.842" stroke="#263238" stroke-width="0.5" stroke-linecap="round" stroke-linejoin="round"/>
<path d="M281.618 202.057C282.912 204.861 283.851 207.865 284.407 210.976" stroke="#263238" stroke-width="0.5" stroke-linecap="round" stroke-linejoin="round"/>
<path d="M262.881 182.968C262.881 182.968 273.734 187.822 280.241 199.36" stroke="#263238" stroke-width="0.5" stroke-linecap="round" stroke-linejoin="round"/>
<path d="M212.877 233.2C212.877 235.364 211.069 237.124 208.83 237.124C206.59 237.124 204.788 235.346 204.788 233.2C204.788 231.055 206.595 229.277 208.83 229.277C211.064 229.277 212.877 231.037 212.877 233.2Z" fill="white" stroke="#263238" stroke-width="0.5" stroke-linecap="round" stroke-linejoin="round"/>
<path d="M296.667 226.83C296.323 228.696 295.229 230.012 294.227 229.763C293.226 229.514 292.687 227.808 293.026 225.941C293.365 224.074 294.459 222.758 295.465 223.007C296.472 223.256 297.006 224.963 296.667 226.83Z" fill="white" stroke="#263238" stroke-width="0.5" stroke-linecap="round" stroke-linejoin="round"/>
<path d="M158.799 180.709C158.799 180.709 155.979 175.221 154.176 174.878C152.373 174.534 144.813 174.19 143.18 175.393C141.546 176.596 141.988 180.537 142.584 181.563C143.18 182.588 145.558 183.11 147.638 182.938C149.718 182.766 156.698 183.453 156.698 183.453C156.698 183.453 160.858 186.879 162.348 186.535C163.837 186.191 165.763 182.422 164.428 180.366C163.092 178.309 161.028 178.819 158.799 180.709Z" fill="#263238" stroke="#263238" stroke-width="0.5" stroke-linecap="round" stroke-linejoin="round"/>
<path d="M158.799 180.709L163.704 181.907" stroke="#263238" stroke-width="0.5" stroke-linecap="round" stroke-linejoin="round"/>
<path d="M115.015 148.772C115.015 148.772 110.767 150.201 110.238 151.629C109.709 153.057 109.35 154.082 109.35 154.082L96.6225 175.512C96.6225 175.512 92 175.103 90.6081 179.596C89.2163 184.088 89.7247 190.204 89.7247 190.204C89.7247 190.204 86.3606 199.799 86.186 206.94C86.0649 211.098 86.2367 215.26 86.6996 219.386C86.6996 219.386 85.8162 206.348 88.4715 202.241C91.1269 198.134 96.6071 201.221 98.7437 208.57C100.88 215.919 103.366 229.591 103.366 229.591L159.437 242.861C159.437 242.861 156.581 225.721 160.31 215.931C164.039 206.14 181.368 206.745 184.542 224.501C187.716 242.256 186.663 245.522 186.663 245.522C186.663 245.522 198.517 248.378 234.598 247.768C270.679 247.157 290.494 242.256 295.799 240.656C295.799 240.656 297.037 233.106 297.391 228.614C297.63 226.032 297.263 223.424 296.328 221.063C296.328 221.063 295.974 212.897 295.09 210.04C294.207 207.183 291.536 202.893 291.536 202.893C291.536 202.893 288.886 195.745 284.464 191.259C280.042 186.773 272.79 182.245 271.023 181.226C269.256 180.206 266.95 179.596 263.591 176.941C260.232 174.286 239.359 157.549 232.816 153.057C226.272 148.565 212.117 146.325 209.287 145.714C206.457 145.104 173.915 142.443 162.595 142.443C151.275 142.443 127.953 143.035 115.015 148.772Z" stroke="#263238" stroke-width="0.5" stroke-linecap="round" stroke-linejoin="round"/>
<path d="M278.095 185.955C278.095 185.955 274.536 187.448 275.527 188.947C276.518 190.447 281.839 194.358 284.258 199.212C286.677 204.066 287.175 206.496 288.305 206.496C289.435 206.496 291.901 204.078 291.551 202.863C291.202 201.648 289.425 190.625 278.095 185.955Z" fill="#F7DE5E" stroke="#263238" stroke-width="0.5" stroke-linecap="round" stroke-linejoin="round"/>
<path d="M100.032 223.374C100 221.474 99.8286 219.581 99.5184 217.715L97.1353 221.081C97.2462 221.833 97.308 222.594 97.3202 223.357C97.3202 223.475 97.3202 223.588 97.3202 223.7L100.037 224.69C100.044 224.259 100.042 223.821 100.032 223.374Z" fill="#263238" stroke="#263238" stroke-width="0.5" stroke-linecap="round" stroke-linejoin="round"/>
<path d="M95.79 217.199C96.0737 217.563 96.3029 217.98 96.468 218.431L98.1629 212.612C97.7225 211.387 97.0254 210.308 96.1342 209.471L95.79 217.199Z" fill="#263238" stroke="#263238" stroke-width="0.5" stroke-linecap="round" stroke-linejoin="round"/>
<path d="M96.9766 227.149C96.8688 227.649 96.7191 228.135 96.5298 228.601L97.9114 235.553C98.6711 234.01 99.2039 232.331 99.4882 230.587L96.9766 227.149Z" fill="#263238" stroke="#263238" stroke-width="0.5" stroke-linecap="round" stroke-linejoin="round"/>
<path d="M92.9031 219.742L90.4583 215.931C90.0757 218.006 89.8812 220.121 89.8779 222.243L92.6052 222.42C92.6259 221.518 92.7257 220.621 92.9031 219.742Z" fill="#263238" stroke="#263238" stroke-width="0.5" stroke-linecap="round" stroke-linejoin="round"/>
<path d="M93.7353 217.424C93.899 217.14 94.1237 216.909 94.3876 216.754L93.987 209.05C93.1241 209.394 92.3434 210.366 91.6963 211.8L93.7353 217.424Z" fill="#263238" stroke="#263238" stroke-width="0.5" stroke-linecap="round" stroke-linejoin="round"/>
<path d="M95.3437 230.029C95.2581 230.055 95.1702 230.069 95.0818 230.071C94.8177 230.061 94.5642 229.948 94.3627 229.751L93.0273 236.406C93.2847 236.809 93.6142 237.143 93.9936 237.385C94.373 237.628 94.7932 237.773 95.2256 237.811C95.4364 237.809 95.6459 237.771 95.847 237.698L95.3437 230.029Z" fill="#263238" stroke="#263238" stroke-width="0.5" stroke-linecap="round" stroke-linejoin="round"/>
<path d="M92.8834 226.219L90.187 227.576C90.4191 229.572 90.8606 231.528 91.5018 233.402L93.2327 227.665C93.0904 227.192 92.9737 226.709 92.8834 226.219Z" fill="#263238" stroke="#263238" stroke-width="0.5" stroke-linecap="round" stroke-linejoin="round"/>
<path d="M87.1101 165.775C87.1101 165.775 116.971 167.701 119.601 168.964C120.384 169.362 121.084 169.952 121.65 170.693C122.217 171.434 122.637 172.308 122.883 173.254L85.4614 171.743L87.1101 165.775Z" fill="white" stroke="#263238" stroke-width="0.5" stroke-linecap="round" stroke-linejoin="round"/>
<path d="M108.949 148.808C108.949 148.808 91.9233 163.096 85.4672 171.743L78.9033 170.226L97.1107 150.076L108.949 148.808Z" fill="white" stroke="#263238" stroke-width="0.5" stroke-linecap="round" stroke-linejoin="round"/>
<path d="M126.54 175.773C126.54 175.773 129.755 157.662 134.974 147.605C134.974 147.605 116.694 144.766 96.7819 148.298C95.6263 148.505 77.5832 165.935 77.5832 165.935C77.5832 165.935 67.0543 176.306 66.8643 178.304C66.8643 178.304 73.3922 204.552 97.1671 222.474L122.991 227.292C122.991 227.292 121.26 194.927 121.512 187.952C121.671 183.726 126.54 175.773 126.54 175.773ZM83.2689 169.213C80.6443 168.205 83.2689 165.177 83.2689 165.177L98.8517 150.823C109.576 148.802 129.006 151.036 129.006 151.036C127.696 153.816 122.883 173.26 122.883 173.26C122.883 173.26 85.8985 170.226 83.2689 169.213Z" fill="white" stroke="#263238" stroke-width="0.5" stroke-linecap="round" stroke-linejoin="round"/>
<path d="M74.9577 176.365L71.6552 176.033C71.6552 176.033 70.3609 176.199 70.3609 177.521C70.3415 177.872 70.4358 178.22 70.6255 178.496C70.8153 178.772 71.087 178.956 71.3881 179.014L77.7877 179.684C77.7877 179.684 77.6182 177.45 78.6454 176.816L74.9577 176.365Z" fill="#263238" stroke="#263238" stroke-width="0.5" stroke-linecap="round" stroke-linejoin="round"/>
<path d="M70.52 179.453C70.52 179.453 71.5472 181.036 72.6258 181.036C73.7044 181.036 77.6746 181.522 77.6746 181.522" stroke="#263238" stroke-width="0.5" stroke-linecap="round" stroke-linejoin="round"/>
<path d="M279.26 151.866L280.534 151.753L285.911 170.593L284.386 170.819L279.26 151.866Z" fill="#263238" stroke="#263238" stroke-width="0.5" stroke-linecap="round" stroke-linejoin="round"/>
<path d="M270.509 150.935C270.509 150.935 272.409 149.75 272.841 149.75C273.272 149.75 274.828 152.121 274.828 152.121C274.828 152.121 272.671 153.519 272.409 153.62C272.147 153.721 270.684 152.921 270.684 152.921C269.824 153.695 269.092 154.64 268.521 155.712C267.828 157.206 264.978 162.693 264.978 162.693C264.978 162.693 263.437 165.289 261.778 164.187C260.119 163.085 259.533 160.501 260.237 159.404C260.941 158.308 270.509 150.935 270.509 150.935Z" fill="#FAD7B0" stroke="#263238" stroke-width="0.5" stroke-linecap="round" stroke-linejoin="round"/>
<path d="M269.04 153.703C269.31 154.075 269.666 154.352 270.067 154.503C270.727 154.575 271.391 154.609 272.054 154.604C272.054 154.604 273.698 154.402 272.399 153.608C271.649 153.144 270.869 152.748 270.067 152.423" fill="#FAD7B0"/>
<path d="M269.04 153.703C269.31 154.075 269.666 154.352 270.067 154.503C270.727 154.575 271.391 154.609 272.054 154.604C272.054 154.604 273.698 154.402 272.399 153.608C271.649 153.144 270.869 152.748 270.067 152.423" stroke="#263238" stroke-width="0.5" stroke-linecap="round" stroke-linejoin="round"/>
<path d="M32.4209 105.811L25.4615 111.625L19.139 105.977C17.5675 104.689 16.3095 102.956 15.4859 100.945C14.6624 98.9339 14.301 96.7122 14.4365 94.4935C14.572 92.2747 15.1998 90.1335 16.2597 88.2756C17.3195 86.4177 18.7757 84.9056 20.4883 83.8846C22.2008 82.8637 24.1122 82.3682 26.0387 82.4458C27.9651 82.5235 29.8419 83.1716 31.4885 84.3279C33.1352 85.4842 34.4964 87.1099 35.4413 89.0486C36.3863 90.9873 36.8831 93.1738 36.8841 95.3981C36.9099 97.4179 36.5186 99.4158 35.7425 101.227C34.9663 103.037 33.8278 104.609 32.4209 105.811Z" fill="white" stroke="#263238" stroke-width="0.5" stroke-linecap="round" stroke-linejoin="round"/>
<path d="M15.77 95.315C15.77 97.5713 16.3499 99.777 17.4363 101.653C18.5227 103.529 20.0668 104.992 21.8734 105.855C23.68 106.718 25.6679 106.944 27.5858 106.504C29.5037 106.064 31.2654 104.977 32.6481 103.382C34.0308 101.786 34.9724 99.7537 35.3539 97.5406C35.7354 95.3276 35.5396 93.0338 34.7913 90.9491C34.043 88.8645 32.7758 87.0828 31.1499 85.8292C29.524 84.5756 27.6124 83.9065 25.657 83.9065C24.3578 83.9034 23.071 84.1964 21.8702 84.7686C20.6694 85.3408 19.5784 86.181 18.6598 87.241C17.7412 88.301 17.013 89.5599 16.5171 90.9454C16.0212 92.331 15.7673 93.8159 15.77 95.315Z" fill="#B9E5FA" stroke="#263238" stroke-width="0.5" stroke-linejoin="round"/>
<path d="M25.6559 106.724C28.0003 106.728 30.2691 105.767 32.0555 104.015C31.9008 102.159 31.1608 100.433 29.9759 99.1649C28.7911 97.8966 27.2439 97.1746 25.6281 97.1359C24.0123 97.0971 22.4404 97.7443 21.2109 98.9547C19.9814 100.165 19.1799 101.854 18.9585 103.701C20.7814 105.646 23.1732 106.726 25.6559 106.724Z" fill="#263238" stroke="#263238" stroke-width="0.5" stroke-linejoin="round"/>
<path d="M29.6559 93.4615C30.3532 90.8051 29.0521 87.9994 26.75 87.1948C24.4479 86.3903 22.0164 87.8915 21.3191 90.5479C20.6219 93.2044 21.9229 96.01 24.225 96.8146C26.5272 97.6191 28.9587 96.1179 29.6559 93.4615Z" fill="#263238" stroke="#263238" stroke-width="0.5" stroke-linejoin="round"/>
<path d="M152.985 142.164L146.041 147.99L139.719 142.342C138.145 141.055 136.884 139.322 136.059 137.311C135.234 135.299 134.871 133.076 135.005 130.856C135.14 128.636 135.768 126.493 136.828 124.633C137.889 122.774 139.346 121.261 141.06 120.24C142.774 119.219 144.687 118.724 146.614 118.803C148.542 118.882 150.42 119.532 152.066 120.691C153.713 121.849 155.074 123.478 156.017 125.419C156.961 127.36 157.455 129.549 157.453 131.775C157.477 133.792 157.083 135.786 156.306 137.592C155.529 139.399 154.391 140.966 152.985 142.164Z" fill="white" stroke="#263238" stroke-width="0.5" stroke-linecap="round" stroke-linejoin="round"/>
<path d="M136.354 131.674C136.354 133.931 136.934 136.136 138.02 138.013C139.107 139.889 140.651 141.351 142.457 142.214C144.264 143.078 146.252 143.304 148.17 142.864C150.088 142.423 151.849 141.337 153.232 139.741C154.615 138.146 155.556 136.113 155.938 133.9C156.319 131.687 156.124 129.393 155.375 127.309C154.627 125.224 153.36 123.442 151.734 122.189C150.108 120.935 148.196 120.266 146.241 120.266C144.942 120.264 143.655 120.557 142.455 121.13C141.255 121.702 140.164 122.542 139.245 123.602C138.327 124.662 137.599 125.921 137.102 127.306C136.606 128.691 136.352 130.176 136.354 131.674Z" fill="#B9E5FA" stroke="#263238" stroke-width="0.5" stroke-linejoin="round"/>
<path d="M146.241 143.082C148.584 143.086 150.851 142.126 152.636 140.374C152.476 138.523 151.734 136.803 150.55 135.54C149.366 134.277 147.823 133.558 146.211 133.519C144.599 133.481 143.03 134.125 141.802 135.33C140.573 136.535 139.77 138.218 139.544 140.06C141.366 142.006 143.758 143.085 146.241 143.082Z" fill="#263238" stroke="#263238" stroke-width="0.5" stroke-linejoin="round"/>
<path d="M150.302 129.502C150.857 126.801 149.409 124.093 147.068 123.453C144.728 122.813 142.381 124.483 141.826 127.184C141.271 129.885 142.719 132.593 145.06 133.233C147.4 133.873 149.747 132.202 150.302 129.502Z" fill="#263238" stroke="#263238" stroke-width="0.5" stroke-linejoin="round"/>
<path d="M27.8507 254.026C42.1811 254.026 53.7982 252.704 53.7982 251.074C53.7982 249.444 42.1811 248.123 27.8507 248.123C13.5204 248.123 1.90332 249.444 1.90332 251.074C1.90332 252.704 13.5204 254.026 27.8507 254.026Z" fill="#757575"/>
<path d="M42.0464 235.221L44.7171 244.704C44.7171 244.704 48.6616 245.741 49.6323 245.605C50.603 245.468 54.1521 244.633 54.2548 245.415C54.3575 246.197 53.2276 246.695 52.8578 247.086C51.6753 248.101 50.4211 248.999 49.1085 249.771C48.1737 250.239 45.3232 251.205 44.486 251.661C43.6488 252.118 42.6524 252.941 42.0053 251.442C41.4538 250.052 41.0984 248.57 40.9524 247.051C40.8445 246.043 36.561 238.019 36.561 238.019L42.0464 235.221Z" fill="#FAD7B0" stroke="#263238" stroke-width="0.5" stroke-linecap="round" stroke-linejoin="round"/>
<path d="M49.6325 245.622C49.4062 245.643 49.1787 245.633 48.9545 245.592L49.1805 246.938C49.1805 246.938 44.0444 249.107 41.4404 249.854C41.5821 250.406 41.7642 250.943 41.9849 251.46C42.632 252.959 43.6284 252.141 44.4656 251.679C45.3028 251.217 48.1533 250.257 49.088 249.788C50.4007 249.016 51.6549 248.118 52.8374 247.104C53.1918 246.713 54.3166 246.215 54.2344 245.432C54.1522 244.65 50.6032 245.486 49.6325 245.622Z" fill="#042E54" stroke="#263238" stroke-width="0.5" stroke-linecap="round" stroke-linejoin="round"/>
<path d="M59.2217 143.101C59.2217 143.101 60.819 142.715 60.6546 143.142C60.4903 143.569 59.3552 143.871 59.3552 143.871C59.3552 143.871 60.5879 143.907 60.3567 144.215C60.0942 144.437 59.7828 144.571 59.4579 144.6L58.9443 145.193C58.9443 145.193 58.4307 145.726 58.3126 145.88C58.1945 146.034 57.1159 146.994 56.8796 146.473C56.7928 146.176 56.769 145.86 56.8101 145.55C56.8512 145.241 56.9561 144.948 57.1159 144.695C57.3265 144.523 59.2217 143.101 59.2217 143.101Z" fill="#FAD7B0" stroke="#263238" stroke-width="0.5" stroke-linecap="round" stroke-linejoin="round"/>
<path d="M30.3928 149.116L38.9597 154.503L53.993 148.274C53.993 148.274 54.6453 147.136 55.6109 145.311C56.5764 143.486 58.2714 142.662 59.011 142.14C59.7505 141.619 60.3874 141.856 60.1717 142.383C59.956 142.911 58.5847 143.397 58.3022 143.764C58.0197 144.132 56.6021 146.36 56.6021 146.36C56.6021 146.36 59.1445 144.902 59.5656 144.866C59.9868 144.831 60.2385 145.192 59.6376 145.637C58.9875 146.057 58.3721 146.545 57.7988 147.095C57.4819 147.59 57.1146 148.04 56.7049 148.434C56.3747 148.687 56.0317 148.916 55.6776 149.122C55.6776 149.122 41.122 160.382 40.3311 160.826C39.5465 161.138 38.7213 161.293 37.8914 161.283L30.0127 157.555L30.3928 149.116Z" fill="#FAD7B0" stroke="#263238" stroke-width="0.5" stroke-linecap="round" stroke-linejoin="round"/>
<path d="M40.9774 153.703L38.9589 154.521L30.392 149.134L30.0376 157.591L37.9163 161.319C38.7462 161.329 39.5714 161.174 40.356 160.862C40.5409 160.756 41.5578 160.05 43.0113 159.025L40.9774 153.703Z" fill="#F7DE5E" stroke="#263238" stroke-width="0.5" stroke-linecap="round" stroke-linejoin="round"/>
<path d="M7.54696 233.023L5.01488 239.962C5.01488 239.962 1.38881 244.004 1.41963 244.585C1.51705 245.122 1.7127 245.629 1.99348 246.071C2.27426 246.514 2.6337 246.882 3.04776 247.151C4.07498 247.744 5.66716 248.757 5.66716 248.757C5.66716 248.757 8.12734 250.618 9.67329 251.033C11.2193 251.448 12.8474 252.171 13.0991 251.223C13.3507 250.274 10.4078 248.325 10.4078 248.325C10.4078 248.325 9.07751 245.361 8.82584 244.484C8.67756 243.54 8.64127 242.577 8.71798 241.622L13.3404 235.624L7.54696 233.023Z" fill="#FAD7B0" stroke="#263238" stroke-width="0.5" stroke-linecap="round" stroke-linejoin="round"/>
<path d="M10.424 248.325C9.85412 248.301 9.28867 248.199 8.73938 248.023C8.03574 247.756 6.41787 246.043 4.85651 243.916C4.35689 243.24 3.81991 242.603 3.24892 242.007C2.3347 243.104 1.41534 244.289 1.43588 244.585C1.53331 245.122 1.72895 245.629 2.00974 246.071C2.29052 246.514 2.64996 246.882 3.06402 247.151C4.09123 247.744 5.68342 248.758 5.68342 248.758C5.68342 248.758 8.14359 250.618 9.68955 251.033C11.2355 251.448 12.8636 252.171 13.1153 251.223C13.367 250.275 10.424 248.325 10.424 248.325Z" fill="#042E54" stroke="#263238" stroke-width="0.5" stroke-linecap="round" stroke-linejoin="round"/>
<path d="M15.2406 189.611L15.2098 211.012L5.67725 232.566L14.2802 238.487L24.5883 215.8L27.0947 199.87L15.2406 189.611Z" fill="#042E54" stroke="#263238" stroke-width="0.5" stroke-linecap="round" stroke-linejoin="round"/>
<path d="M14.6455 178.001C14.6455 178.001 12.4729 186.204 12.8684 188.029C13.2639 189.854 25.195 217.531 25.195 217.531L34.7994 240.229L45.4671 236.585L36.3762 206.952L29.6634 188.717V178.902L14.6455 178.001Z" fill="#013B71" stroke="#263238" stroke-width="0.5" stroke-linecap="round" stroke-linejoin="round"/>
<path d="M29.5808 138.152L28.6204 141.068L26.1294 139.569L26.4273 136.439L29.5808 138.152Z" fill="#FAD7B0" stroke="#263238" stroke-width="0.5" stroke-linecap="round" stroke-linejoin="round"/>
<path d="M30.1671 141.809C30.1671 141.809 28.6725 142.324 28.8317 144.001C28.9909 145.679 31.2919 152.127 31.8568 155.558C32.4218 158.989 31.9441 159.772 32.0469 161.277C32.1496 162.782 31.5333 176.804 31.7233 179.252C31.9133 181.7 31.071 181.877 25.5035 181.735C19.936 181.593 16.7722 180.734 15.0259 179.578C13.2797 178.422 14.086 176.662 14.7075 175.246C15.329 173.829 17.8867 155.297 19.2221 150.609C20.5575 145.922 20.7989 144.179 22.9817 142.49C25.1645 140.801 25.4573 141.121 25.6062 140.398C25.7552 139.675 26.1198 138.591 26.1198 138.591L30.1671 141.809Z" fill="#F7DE5E" stroke="#263238" stroke-width="0.5" stroke-linecap="round" stroke-linejoin="round"/>
<path d="M25.2871 159.831C26.2399 160.964 27.485 161.71 28.8361 161.958" stroke="#263238" stroke-width="0.5" stroke-linecap="round" stroke-linejoin="round"/>
<path d="M24.5068 166.184C24.7 166.478 24.9075 166.759 25.1283 167.025" stroke="#263238" stroke-width="0.5" stroke-linecap="round" stroke-linejoin="round"/>
<path d="M22.0254 160.139C22.4632 161.909 23.0986 163.606 23.9155 165.188" stroke="#263238" stroke-width="0.5" stroke-linecap="round" stroke-linejoin="round"/>
<path d="M34.83 125.013C35.26 126.22 35.3162 127.562 34.9892 128.812C34.4139 130.768 34.265 131.716 34.717 132.486C35.1689 133.257 35.3641 134.211 34.6297 134.679C34.2688 134.937 33.8643 135.103 33.4432 135.165C33.4432 135.165 32.1438 138.839 31.2809 139.201C30.4181 139.562 27.6138 138.318 26.715 137.636C25.8162 136.955 26.5506 129.695 27.1721 128.456C27.7935 127.218 34.83 125.013 34.83 125.013Z" fill="#FAD7B0" stroke="#263238" stroke-width="0.5" stroke-linecap="round" stroke-linejoin="round"/>
<path d="M32.3234 135.165C31.363 135.218 30.9572 133.979 30.9572 133.979C30.9572 133.979 30.346 136.036 31.0907 136.32C31.8355 136.605 32.3234 135.165 32.3234 135.165Z" stroke="#263238" stroke-width="0.5" stroke-linecap="round" stroke-linejoin="round"/>
<path d="M33.8395 131.058C33.7522 131.556 33.4954 131.917 33.2694 131.864C33.0434 131.811 32.9356 131.366 33.0229 130.862C33.1102 130.359 33.367 129.997 33.593 130.05C33.819 130.104 33.9268 130.554 33.8395 131.058Z" fill="#263238"/>
<path d="M37.0691 121.486C37.0691 121.486 37.1102 124.183 35.369 125.57C33.6279 126.956 29.1595 128.462 28.4816 128.924C28.284 129.06 28.1192 129.251 28.0026 129.48C27.8859 129.709 27.821 129.968 27.8139 130.234C27.5019 132.477 27.291 134.739 27.1821 137.008C27.1821 139.052 28.8 140.723 28.2094 142.217C27.6187 143.71 25.7543 143.805 24.5576 143.835C23.3609 143.864 23.705 145.844 21.5992 147.1C19.4934 148.357 17.8088 147.758 16.684 145.862C15.5592 143.965 16.1036 143.005 15.1432 142.602C14.1827 142.199 12.5752 143.088 11.4555 139.941C10.3358 136.794 11.3476 134.43 12.1745 133.807C13.0015 133.185 16.1088 133.387 15.9496 129.469C15.7903 125.552 18.6563 119.329 22.9192 116.804C27.1821 114.28 34.0439 119.098 34.9684 119.584C35.8929 120.07 37.0948 120.514 37.0691 121.486Z" fill="#263238" stroke="#263238" stroke-width="0.5" stroke-linecap="round" stroke-linejoin="round"/>
<path d="M32.9756 173.716C32.9756 173.716 30.5719 152.879 28.6202 147.871C26.6685 142.863 24.6295 140.457 21.5427 144.831C18.4559 149.205 17.0127 174.789 17.0127 174.789" stroke="#263238" stroke-width="0.5" stroke-linecap="round" stroke-linejoin="round"/>
<path d="M26.6078 150.983C26.6078 150.983 19.4635 170.214 18.3901 171.447C17.3166 172.68 13.254 175.275 12.2268 172.229C11.1996 169.183 19.8179 146.692 21.7285 144.422C23.6391 142.152 27.296 143.071 27.3782 147.101" fill="#F7DE5E"/>
<path d="M26.6078 150.983C26.6078 150.983 19.4635 170.214 18.3901 171.447C17.3166 172.68 13.254 175.275 12.2268 172.229C11.1996 169.183 19.8179 146.692 21.7285 144.422C23.6391 142.152 27.296 143.071 27.3782 147.101" stroke="#263238" stroke-width="0.5" stroke-linecap="round" stroke-linejoin="round"/>
<path d="M27.2179 169.538C28.0645 169.321 28.8546 168.876 29.524 168.24C29.8723 167.829 30.2952 167.512 30.7624 167.312C31.2295 167.113 31.7293 167.035 32.2256 167.085C33.1039 167.197 34.3211 167.162 34.3828 168.199C34.4098 168.554 34.3476 168.91 34.2037 169.225C34.0598 169.541 33.8402 169.802 33.5713 169.977C33.3145 170.131 33.0576 173.645 32.3694 174.125C31.6812 174.605 29.0053 173.793 28.05 173.58C27.0947 173.367 21.0906 174.445 18.0398 174.078C14.9889 173.71 12.2617 173.538 12.2257 172.229C12.1898 170.919 13.6536 167.369 17.0639 167.233C20.4743 167.096 23.3402 169.514 27.2179 169.538Z" fill="#FAD7B0" stroke="#263238" stroke-width="0.5" stroke-linecap="round" stroke-linejoin="round"/>
<path d="M32.9753 173.716C32.9753 173.716 31.5012 174.742 24.6086 174.902C17.716 175.062 17.0124 174.789 17.0124 174.789C17.0124 174.789 14.9579 184.988 15.7027 186.109C17.0483 188.141 30.9209 187.738 32.2768 186.233C33.6327 184.728 32.9753 173.716 32.9753 173.716Z" fill="#F44336" stroke="#263238" stroke-width="0.5" stroke-linecap="round" stroke-linejoin="round"/>
<path d="M32.8677 129.404C33.0136 129.161 33.2302 128.987 33.4782 128.913C33.7261 128.839 33.9888 128.87 34.2185 129.001" stroke="#263238" stroke-width="0.5" stroke-linecap="round" stroke-linejoin="round"/>
</svg>
